<svg width="92" height="86" viewBox="0 0 92 86" fill="none" xmlns="http://www.w3.org/2000/svg">
<g clip-path="url(#clip0_526_17)">
<path d="M28.9122 84.9116L45.6567 70.9578L63.5175 84.9116C63.5175 84.9116 69.6572 86.586 68.5409 79.8882L63.5175 75.9812L50.1219 67.0507L65.7501 54.2133H66.8664H75.7968L76.355 53.6551L77.4713 53.097C77.4713 53.097 86.4017 53.097 91.425 41.934C91.425 41.934 94.2158 34.678 87.518 32.4454C87.518 32.4454 81.9365 30.771 77.4713 34.678C77.4713 34.678 68.5409 38.0269 66.3083 49.7481L65.192 51.9807L46.773 64.8181H45.0985L35.0518 58.1203L27.2377 52.5388L26.6795 50.3062C26.6795 50.3062 25.0051 44.7247 23.3306 43.6084L22.2143 42.4921L8.81873 33.0036L8.26057 31.8873C8.26057 31.8873 6.02797 30.771 7.14427 33.5617L14.4002 39.1432L19.9817 43.6084C19.9817 43.6084 21.098 45.2829 18.8654 44.1666L11.0513 39.1432L6.58612 36.3525C6.58612 36.3525 4.35352 35.2362 6.02797 37.4688L17.7491 46.9573C17.7491 46.9573 19.4236 48.6318 17.191 47.5155L4.91167 39.7014C4.91167 39.7014 1.56277 38.0269 3.79537 40.8177L14.9584 49.7481C14.9584 49.7481 16.6328 51.9807 14.4002 50.3062L2.12092 42.4921C2.12092 42.4921 -1.78614 39.7014 1.00461 43.6084L14.9584 53.097L16.0747 53.6551V54.2133C16.0747 54.2133 18.8654 55.3296 26.6795 54.7714L28.354 56.4459L30.5866 58.1203L41.7496 67.6089L35.61 70.9578L24.4469 78.2138C24.4469 78.2138 19.9817 86.0279 28.9122 84.9116Z" fill="#EA6300"/>
<path d="M63.5176 40.8176L62.9594 51.9806L46.2149 62.5855L28.3541 51.9806V40.8176C28.3541 40.8176 17.7492 38.585 11.6096 29.6546C11.6096 29.6546 7.14437 19.6079 21.0981 11.2356V17.9334L24.447 24.6312C24.447 24.6312 26.6796 28.5383 25.0052 24.0731L23.8889 20.166L22.7726 17.3753V9.00299C22.7726 9.00299 25.5633 -3.27632 47.8894 1.18888C47.8894 1.18888 55.1453 6.21224 49.0057 22.9568C49.0057 22.9568 49.0057 24.6312 50.122 22.9568C50.122 22.9568 55.7035 10.6774 50.122 1.18888C50.122 1.18888 67.9828 -4.95078 73.5643 10.6774C73.5643 10.6774 75.2388 16.8171 66.3084 27.422C66.3084 27.422 65.1921 29.6546 67.4247 26.8638C67.4247 26.8638 74.6806 20.7242 74.6806 11.7937C74.6806 11.7937 83.0529 16.259 80.8203 26.3057C80.8203 26.3057 79.1458 32.4453 71.8899 35.7942C71.8899 35.7942 65.1921 40.2594 63.5176 40.8176Z" fill="#EA6300"/>
<path d="M32.5178 65.9233C32.5178 67.5921 32.0211 68.9819 31.0331 70.1094C30.0452 71.2369 28.8731 71.795 27.5224 71.795C26.1158 71.795 24.9381 71.2424 23.9949 70.1317C23.0516 69.021 22.5771 67.62 22.5771 65.9233C22.5771 64.1763 23.0627 62.7585 24.0283 61.6757C24.9939 60.5929 26.1605 60.0515 27.5279 60.0515C28.8954 60.0515 30.0675 60.6041 31.0499 61.6981C32.0266 62.7976 32.5178 64.2042 32.5178 65.9233ZM28.7838 61.659C28.5382 60.7827 28.114 60.3473 27.5168 60.3473C27.2154 60.3473 26.953 60.4701 26.7298 60.7213C26.5065 60.9725 26.3391 61.3353 26.2219 61.8097C26.1047 62.2841 26.0154 62.8925 25.9651 63.6348C25.9093 64.3772 25.887 65.1419 25.887 65.9233C25.887 66.9949 25.9205 67.8712 25.9874 68.5466C26.0544 69.2219 26.1772 69.8861 26.3558 70.528C26.5344 71.1755 26.9251 71.4936 27.5224 71.4936C27.8238 71.4936 28.0861 71.3708 28.3094 71.1196C28.5326 70.8685 28.7001 70.5057 28.8173 70.0313C28.9345 69.5568 29.0238 68.9484 29.074 68.2061C29.1243 67.4638 29.1522 66.6991 29.1522 65.9177C29.1522 64.9911 29.1298 64.1874 29.0796 63.5065C29.0294 62.8255 28.9345 62.2116 28.7838 61.659Z" fill="#202223"/>
<path d="M68.1 61.4636V66.0516H67.9046C67.5586 65.1921 67.2404 64.4721 66.9446 63.886C66.6488 63.2999 66.286 62.8032 65.8562 62.3902C65.4264 61.9771 64.9185 61.7762 64.338 61.7762L63.4059 61.7315V66.2805L63.9697 66.2526C64.4441 66.1967 64.8013 65.9344 65.0469 65.4711C65.2869 65.0079 65.4097 64.4721 65.4097 63.8581H65.6441V69.0154H65.4097C65.4097 68.3847 65.2925 67.8321 65.0525 67.3577C64.8125 66.8833 64.4552 66.6209 63.9697 66.5651L63.4059 66.5372V69.9531L63.4282 70.6061C63.4506 70.9075 63.5176 71.1252 63.6236 71.2592C63.7296 71.3931 63.8692 71.4713 64.0478 71.4992C64.2264 71.5271 64.3827 71.5438 64.5278 71.5494C64.6729 71.555 64.8013 71.5606 64.9129 71.5717V71.8006H58.9407V71.5717C59.0468 71.5717 59.1696 71.5662 59.3091 71.5494C59.4486 71.5327 59.6049 71.5159 59.7835 71.4936C59.9565 71.4713 60.0961 71.3987 60.191 71.2815C60.2859 71.1643 60.3417 70.9522 60.3696 70.6508L60.3919 69.9977V63.2832L60.3696 62.6302C60.3473 62.3288 60.2859 62.1167 60.1854 61.9939C60.0849 61.8711 59.951 61.7929 59.7724 61.765C59.5937 61.7371 59.4375 61.7204 59.2924 61.7148C59.1472 61.7092 59.0189 61.7036 58.9072 61.6925V61.4636H68.1Z" fill="#202223"/>
</g>
<defs>
<clipPath id="clip0_526_17">
<rect width="92" height="85.0957" fill="white"/>
</clipPath>
</defs>
</svg>
